{
	"asset":{
		"generator":"Khronos glTF Blender I/O v5.0.21",
		"version":"2.0"
	},
	"scene":0,
	"scenes":[
		{
			"name":"Scene",
			"nodes":[
				36
			]
		}
	],
	"nodes":[
		{
			"name":"Bone.004_end",
			"rotation":[
				7.436853799447363e-09,
				1.878746047623281e-10,
				-3.003515303134918e-08,
				1
			],
			"scale":[
				1,
				0.9999998807907104,
				0.9999999403953552
			],
			"translation":[
				-4.284083843231201e-08,
				1.4242384433746338,
				3.219065547455102e-08
			]
		},
		{
			"children":[
				0
			],
			"name":"Bone.004",
			"rotation":[
				-3.296477046887958e-08,
				-2.3127714143811318e-07,
				-0.28056082129478455,
				0.9598362445831299
			],
			"scale":[
				1,
				1,
				0.9999999403953552
			],
			"translation":[
				-7.748603820800781e-07,
				1.7600831985473633,
				2.781479224722716e-08
			]
		},
		{
			"children":[
				1
			],
			"name":"Bone.003",
			"rotation":[
				1.3332759785100734e-08,
				1.3543293597706452e-08,
				0.14181587100028992,
				0.9898930788040161
			],
			"scale":[
				0.9999999403953552,
				1,
				1
			],
			"translation":[
				2.384185791015625e-07,
				1.8156118392944336,
				3.247058089073107e-07
			]
		},
		{
			"name":"Bone.018_end",
			"rotation":[
				4.840799761041126e-09,
				6.04464105435909e-08,
				9.685754776000977e-08,
				1
			],
			"translation":[
				1.4156103134155273e-07,
				0.5918149352073669,
				4.784919838130008e-07
			]
		},
		{
			"children":[
				3
			],
			"name":"Bone.018",
			"rotation":[
				0.03270537778735161,
				-0.01545007061213255,
				0.4268553853034973,
				0.9035962224006653
			],
			"scale":[
				0.9999998211860657,
				0.9999998211860657,
				1
			],
			"translation":[
				-5.960464477539063e-08,
				1.8814826011657715,
				-2.849847078323364e-07
			]
		},
		{
			"children":[
				4
			],
			"name":"Bone.017",
			"rotation":[
				0.002417589072138071,
				-0.008147588931024075,
				0.10873601585626602,
				0.9940343499183655
			],
			"scale":[
				0.9999998807907104,
				0.9999999403953552,
				0.9999998807907104
			],
			"translation":[
				4.470348358154297e-08,
				1.6364812850952148,
				4.470348358154297e-08
			]
		},
		{
			"children":[
				5
			],
			"name":"Bone.016",
			"rotation":[
				-0.09503399580717087,
				-0.000345501845004037,
				-0.01922614313662052,
				0.9952883124351501
			],
			"scale":[
				0.9999998807907104,
				0.9999999403953552,
				1
			],
			"translation":[
				3.501772880554199e-07,
				1.726374864578247,
				3.2782554626464844e-07
			]
		},
		{
			"children":[
				6
			],
			"name":"Bone.015",
			"rotation":[
				0.03402388468384743,
				-0.045174140483140945,
				-0.7975070476531982,
				0.6006531715393066
			],
			"scale":[
				1,
				0.9999998807907104,
				1
			],
			"translation":[
				0.008708924055099487,
				1.8481252193450928,
				0.6630421280860901
			]
		},
		{
			"name":"Bone.022_end",
			"rotation":[
				4.6566128730773926e-08,
				9.499490971620617e-08,
				-9.313226634333205e-09,
				1
			],
			"scale":[
				0.9999999403953552,
				1,
				1
			],
			"translation":[
				-1.695007085800171e-07,
				0.591815173625946,
				-1.4901161193847656e-07
			]
		},
		{
			"children":[
				8
			],
			"name":"Bone.022",
			"rotation":[
				0.42806169390678406,
				-0.013079686090350151,
				0.006195947993546724,
				0.9036335945129395
			],
			"scale":[
				1,
				0.9999998807907104,
				1
			],
			"translation":[
				-2.3562461137771606e-07,
				1.8814821243286133,
				5.029141902923584e-08
			]
		},
		{
			"children":[
				9
			],
			"name":"Bone.021",
			"rotation":[
				0.06828344613313675,
				-0.7737418413162231,
				0.08465664088726044,
				0.6240947842597961
			],
			"scale":[
				0.9999999403953552,
				0.9999998211860657,
				0.9999999403953552
			],
			"translation":[
				-2.2351741790771484e-08,
				1.6364802122116089,
				8.940696716308594e-08
			]
		},
		{
			"children":[
				10
			],
			"name":"Bone.020",
			"rotation":[
				0.07604680955410004,
				-0.6174379587173462,
				0.060149725526571274,
				0.7806211113929749
			],
			"scale":[
				0.9999998807907104,
				1,
				0.9999999403953552
			],
			"translation":[
				-2.682209014892578e-07,
				1.7263745069503784,
				-8.940696716308594e-08
			]
		},
		{
			"children":[
				11
			],
			"name":"Bone.019",
			"rotation":[
				0.5302596092224121,
				0.45023998618125916,
				-0.5966572761535645,
				0.40013599395751953
			],
			"scale":[
				1,
				1.0000001192092896,
				1
			],
			"translation":[
				0.008708983659744263,
				1.8481251001358032,
				-0.6630422472953796
			]
		},
		{
			"children":[
				2,
				7,
				12
			],
			"name":"Bone.002",
			"rotation":[
				-4.4616626837523654e-08,
				-6.796742724191063e-08,
				0.14647792279720306,
				0.9892139434814453
			],
			"scale":[
				1,
				0.9999999403953552,
				0.9999999403953552
			],
			"translation":[
				-5.168840289115906e-07,
				2.0047922134399414,
				-4.285539034754038e-08
			]
		},
		{
			"children":[
				13
			],
			"name":"Bone.001",
			"rotation":[
				3.8057947904235334e-08,
				4.206491439617821e-07,
				0.08429573476314545,
				0.9964408278465271
			],
			"scale":[
				0.9999999403953552,
				0.9999999403953552,
				1
			],
			"translation":[
				2.1979212760925293e-07,
				2.0797111988067627,
				-9.443283488508314e-09
			]
		},
		{
			"name":"Bone.010_end",
			"rotation":[
				1.7807976204764486e-09,
				3.845002538582776e-09,
				-9.313226634333205e-09,
				1
			],
			"scale":[
				1,
				0.9999999403953552,
				1
			],
			"translation":[
				4.76837158203125e-07,
				0.7685184478759766,
				1.1945735423068982e-07
			]
		},
		{
			"children":[
				15
			],
			"name":"Bone.010",
			"rotation":[
				-5.913469891538625e-08,
				1.2100475998977345e-07,
				-0.05331309512257576,
				0.998577892780304
			],
			"translation":[
				-1.0728836059570312e-06,
				0.7704440355300903,
				3.3018977774190716e-07
			]
		},
		{
			"children":[
				16
			],
			"name":"Bone.009",
			"rotation":[
				-1.4848119178623165e-07,
				-1.279382217944658e-07,
				-0.11906182765960693,
				0.9928869009017944
			],
			"scale":[
				0.9999999403953552,
				0.9999999403953552,
				1.0000001192092896
			],
			"translation":[
				1.1920928955078125e-06,
				0.8253166079521179,
				-1.0586836651782505e-06
			]
		},
		{
			"children":[
				17
			],
			"name":"Bone.008",
			"rotation":[
				-4.323040414533352e-08,
				-1.6666216140492907e-07,
				-0.022001856938004494,
				0.9997579455375671
			],
			"scale":[
				1,
				1,
				0.9999999403953552
			],
			"translation":[
				-5.364418029785156e-07,
				1.1011825799942017,
				5.819717898702947e-07
			]
		},
		{
			"children":[
				18
			],
			"name":"Bone.007",
			"rotation":[
				9.780063692232943e-08,
				4.363121774986212e-08,
				0.08025848865509033,
				0.9967741370201111
			],
			"scale":[
				1,
				1,
				0.9999999403953552
			],
			"translation":[
				1.7881393432617188e-07,
				1.3964260816574097,
				2.3679467631154694e-07
			]
		},
		{
			"children":[
				19
			],
			"name":"Bone.006",
			"rotation":[
				1.3860986314284673e-07,
				-1.9632743430975097e-07,
				0.1577032506465912,
				0.9874865412712097
			],
			"translation":[
				1.1920928955078125e-06,
				1.2249690294265747,
				-1.3809722076985054e-07
			]
		},
		{
			"children":[
				20
			],
			"name":"Bone.005",
			"rotation":[
				-5.178058586352563e-07,
				8.611326052232471e-08,
				-0.9637975692749023,
				0.26663511991500854
			],
			"scale":[
				0.9999992847442627,
				0.9999998211860657,
				0.9999999403953552
			],
			"translation":[
				0.01519612967967987,
				-1.179012656211853,
				1.2410055205691606e-08
			]
		},
		{
			"name":"Bone.014_end",
			"rotation":[
				1.0253183191366588e-08,
				-4.0285716984556075e-09,
				1.862645149230957e-09,
				1
			],
			"scale":[
				1,
				1,
				0.9999999403953552
			],
			"translation":[
				-7.543712854385376e-08,
				0.777412474155426,
				-1.1875639671643512e-07
			]
		},
		{
			"children":[
				22
			],
			"name":"Bone.014",
			"rotation":[
				0.006824230309575796,
				-0.005452578421682119,
				0.6242162585258484,
				0.7812027931213379
			],
			"scale":[
				0.9999998211860657,
				0.9999998211860657,
				0.9999997615814209
			],
			"translation":[
				3.688037395477295e-07,
				1.4916013479232788,
				-4.7963112592697144e-08
			]
		},
		{
			"children":[
				23
			],
			"name":"Bone.013",
			"rotation":[
				0.04555562511086464,
				-0.021499106660485268,
				0.32674771547317505,
				0.9437682032585144
			],
			"scale":[
				0.9999999403953552,
				0.9999998807907104,
				0.9999999403953552
			],
			"translation":[
				-1.4901161193847656e-08,
				2.031299114227295,
				1.9371509552001953e-07
			]
		},
		{
			"children":[
				24
			],
			"name":"Bone.012",
			"rotation":[
				-0.020313017070293427,
				0.04253004491329193,
				-0.4663659930229187,
				0.8833353519439697
			],
			"scale":[
				1,
				1.0000001192092896,
				1.0000001192092896
			],
			"translation":[
				7.450580596923828e-07,
				1.580651879310608,
				4.470348358154297e-08
			]
		},
		{
			"children":[
				25
			],
			"name":"Bone.011",
			"rotation":[
				-0.028098180890083313,
				0.019089965149760246,
				-0.5616455674171448,
				0.8266803026199341
			],
			"scale":[
				0.9999999403953552,
				0.9999998807907104,
				0.9999998807907104
			],
			"translation":[
				0.6069303750991821,
				0.16137297451496124,
				0.9224308133125305
			]
		},
		{
			"name":"Bone.026_end",
			"rotation":[
				-1.0244548320770264e-08,
				-1.8160788428644992e-08,
				-1.4784744983842302e-08,
				1
			],
			"scale":[
				1.0000001192092896,
				1,
				1
			],
			"translation":[
				-6.948539521545172e-08,
				0.7774123549461365,
				-2.7008354663848877e-08
			]
		},
		{
			"children":[
				27
			],
			"name":"Bone.026",
			"rotation":[
				0.6223224997520447,
				0.06140006706118584,
				-0.04906318709254265,
				0.7788052558898926
			],
			"scale":[
				1,
				0.9999999403953552,
				0.9999998807907104
			],
			"translation":[
				1.7281854525208473e-07,
				1.4916009902954102,
				5.513429641723633e-07
			]
		},
		{
			"children":[
				28
			],
			"name":"Bone.025",
			"rotation":[
				0.01983753778040409,
				0.9423049092292786,
				-0.32931116223335266,
				0.05676409229636192
			],
			"scale":[
				1,
				1,
				0.9999998807907104
			],
			"translation":[
				-1.341104507446289e-07,
				2.031299591064453,
				-5.960464477539062e-07
			]
		},
		{
			"children":[
				29
			],
			"name":"Bone.024",
			"rotation":[
				0.46656346321105957,
				-0.028621651232242584,
				0.015107857063412666,
				0.8838954567909241
			],
			"scale":[
				0.9999999403953552,
				0.9999998807907104,
				0.9999999403953552
			],
			"translation":[
				-2.384185791015625e-07,
				1.5806519985198975,
				-2.9802322387695312e-08
			]
		},
		{
			"children":[
				30
			],
			"name":"Bone.023",
			"rotation":[
				0.4119001030921936,
				0.5629582405090332,
				-0.38284945487976074,
				0.605675458908081
			],
			"scale":[
				0.9999999403953552,
				0.9999999403953552,
				1
			],
			"translation":[
				0.6069288849830627,
				0.16137224435806274,
				-0.9224318861961365
			]
		},
		{
			"children":[
				14,
				21,
				26,
				31
			],
			"name":"Bone",
			"rotation":[
				-1.9666933326334401e-07,
				-1.1524227971904111e-07,
				-0.772297203540802,
				0.6352614164352417
			],
			"scale":[
				0.9999997615814209,
				0.9999995231628418,
				0.9999998211860657
			],
			"translation":[
				-2.618837356567383,
				5.602419376373291,
				2.4573262180638267e-07
			]
		},
		{
			"mesh":0,
			"name":"eye2",
			"skin":0
		},
		{
			"mesh":1,
			"name":"eye2.001",
			"skin":0
		},
		{
			"mesh":2,
			"name":"high_poly",
			"skin":0
		},
		{
			"children":[
				33,
				34,
				35,
				32
			],
			"name":"Armature",
			"rotation":[
				0,
				-0.22210907936096191,
				0,
				0.9750218391418457
			],
			"translation":[
				0.16055917739868164,
				-0.2526913583278656,
				0.522407054901123
			]
		}
	],
	"materials":[
		{
			"doubleSided":true,
			"name":"SHD_eye",
			"pbrMetallicRoughness":{
				"baseColorTexture":{
					"index":0
				},
				"metallicFactor":0,
				"roughnessFactor":0.18807339668273926
			}
		},
		{
			"doubleSided":true,
			"name":"whiskers",
			"pbrMetallicRoughness":{
				"baseColorTexture":{
					"index":1
				},
				"metallicFactor":0,
				"roughnessFactor":0.5
			}
		},
		{
			"doubleSided":true,
			"name":"SHD_frip",
			"pbrMetallicRoughness":{
				"baseColorTexture":{
					"index":2
				},
				"metallicFactor":0,
				"roughnessFactor":0.71100914478302
			}
		}
	],
	"meshes":[
		{
			"name":"Cube.003",
			"primitives":[
				{
					"attributes":{
						"POSITION":0,
						"NORMAL":1,
						"TEXCOORD_0":2,
						"COLOR_0":3,
						"COLOR_1":4,
						"JOINTS_0":5,
						"WEIGHTS_0":6
					},
					"indices":7,
					"material":0
				}
			]
		},
		{
			"name":"Cube.005",
			"primitives":[
				{
					"attributes":{
						"POSITION":9,
						"NORMAL":10,
						"TEXCOORD_0":11,
						"COLOR_0":12,
						"COLOR_1":13,
						"JOINTS_0":14,
						"WEIGHTS_0":15
					},
					"indices":16,
					"material":1
				}
			]
		},
		{
			"name":"Cube.004",
			"primitives":[
				{
					"attributes":{
						"POSITION":17,
						"NORMAL":18,
						"TEXCOORD_0":19,
						"JOINTS_0":20,
						"WEIGHTS_0":21
					},
					"indices":22,
					"material":2
				}
			]
		}
	],
	"textures":[
		{
			"sampler":0,
			"source":0
		},
		{
			"sampler":0,
			"source":0
		},
		{
			"sampler":0,
			"source":1
		}
	],
	"images":[
		{
			"mimeType":"image/png",
			"name":"SHD_eye_baseColor",
			"uri":"../textures/cat/SHD_eye_baseColor.png"
		},
		{
			"mimeType":"image/png",
			"name":"SHD_frip_baseColor",
			"uri":"../textures/cat/SHD_frip_baseColor.png"
		}
	],
	"skins":[
		{
			"inverseBindMatrices":8,
			"joints":[
				32,
				14,
				13,
				2,
				1,
				0,
				7,
				6,
				5,
				4,
				3,
				12,
				11,
				10,
				9,
				8,
				21,
				20,
				19,
				18,
				17,
				16,
				15,
				26,
				25,
				24,
				23,
				22,
				31,
				30,
				29,
				28,
				27
			],
			"name":"Armature"
		}
	],
	"accessors":[
		{
			"bufferView":0,
			"componentType":5126,
			"count":578,
			"max":[
				6.1818742752075195,
				7.085918426513672,
				3.8986027240753174
			],
			"min":[
				5.346263885498047,
				6.4545745849609375,
				2.4758434295654297
			],
			"type":"VEC3"
		},
		{
			"bufferView":1,
			"componentType":5126,
			"count":578,
			"type":"VEC3"
		},
		{
			"bufferView":2,
			"componentType":5126,
			"count":578,
			"type":"VEC2"
		},
		{
			"bufferView":3,
			"componentType":5121,
			"count":578,
			"normalized":true,
			"type":"VEC4"
		},
		{
			"bufferView":4,
			"componentType":5123,
			"count":578,
			"normalized":true,
			"type":"VEC4"
		},
		{
			"bufferView":5,
			"componentType":5121,
			"count":578,
			"type":"VEC4"
		},
		{
			"bufferView":6,
			"componentType":5126,
			"count":578,
			"type":"VEC4"
		},
		{
			"bufferView":7,
			"componentType":5123,
			"count":3264,
			"type":"SCALAR"
		},
		{
			"bufferView":8,
			"componentType":5126,
			"count":33,
			"type":"MAT4"
		},
		{
			"bufferView":9,
			"componentType":5126,
			"count":650,
			"max":[
				6.740694522857666,
				6.1845245361328125,
				4.704790115356445
			],
			"min":[
				5.1932501792907715,
				5.6297993659973145,
				1.9992647171020508
			],
			"type":"VEC3"
		},
		{
			"bufferView":10,
			"componentType":5126,
			"count":650,
			"type":"VEC3"
		},
		{
			"bufferView":11,
			"componentType":5126,
			"count":650,
			"type":"VEC2"
		},
		{
			"bufferView":12,
			"componentType":5121,
			"count":650,
			"normalized":true,
			"type":"VEC4"
		},
		{
			"bufferView":13,
			"componentType":5123,
			"count":650,
			"normalized":true,
			"type":"VEC4"
		},
		{
			"bufferView":14,
			"componentType":5121,
			"count":650,
			"type":"VEC4"
		},
		{
			"bufferView":15,
			"componentType":5126,
			"count":650,
			"type":"VEC4"
		},
		{
			"bufferView":16,
			"componentType":5123,
			"count":2880,
			"type":"SCALAR"
		},
		{
			"bufferView":17,
			"componentType":5126,
			"count":3827,
			"max":[
				6.492879867553711,
				8.209837913513184,
				4.157490253448486
			],
			"min":[
				-8.087053298950195,
				-0.26798194646835327,
				-3.6243414878845215
			],
			"type":"VEC3"
		},
		{
			"bufferView":18,
			"componentType":5126,
			"count":3827,
			"type":"VEC3"
		},
		{
			"bufferView":19,
			"componentType":5126,
			"count":3827,
			"type":"VEC2"
		},
		{
			"bufferView":20,
			"componentType":5121,
			"count":3827,
			"type":"VEC4"
		},
		{
			"bufferView":21,
			"componentType":5126,
			"count":3827,
			"type":"VEC4"
		},
		{
			"bufferView":22,
			"componentType":5123,
			"count":18984,
			"type":"SCALAR"
		}
	],
	"bufferViews":[
		{
			"buffer":0,
			"byteLength":6936,
			"byteOffset":0,
			"target":34962
		},
		{
			"buffer":0,
			"byteLength":6936,
			"byteOffset":6936,
			"target":34962
		},
		{
			"buffer":0,
			"byteLength":4624,
			"byteOffset":13872,
			"target":34962
		},
		{
			"buffer":0,
			"byteLength":2312,
			"byteOffset":18496,
			"target":34962
		},
		{
			"buffer":0,
			"byteLength":4624,
			"byteOffset":20808,
			"target":34962
		},
		{
			"buffer":0,
			"byteLength":2312,
			"byteOffset":25432,
			"target":34962
		},
		{
			"buffer":0,
			"byteLength":9248,
			"byteOffset":27744,
			"target":34962
		},
		{
			"buffer":0,
			"byteLength":6528,
			"byteOffset":36992,
			"target":34963
		},
		{
			"buffer":0,
			"byteLength":2112,
			"byteOffset":43520
		},
		{
			"buffer":0,
			"byteLength":7800,
			"byteOffset":45632,
			"target":34962
		},
		{
			"buffer":0,
			"byteLength":7800,
			"byteOffset":53432,
			"target":34962
		},
		{
			"buffer":0,
			"byteLength":5200,
			"byteOffset":61232,
			"target":34962
		},
		{
			"buffer":0,
			"byteLength":2600,
			"byteOffset":66432,
			"target":34962
		},
		{
			"buffer":0,
			"byteLength":5200,
			"byteOffset":69032,
			"target":34962
		},
		{
			"buffer":0,
			"byteLength":2600,
			"byteOffset":74232,
			"target":34962
		},
		{
			"buffer":0,
			"byteLength":10400,
			"byteOffset":76832,
			"target":34962
		},
		{
			"buffer":0,
			"byteLength":5760,
			"byteOffset":87232,
			"target":34963
		},
		{
			"buffer":0,
			"byteLength":45924,
			"byteOffset":92992,
			"target":34962
		},
		{
			"buffer":0,
			"byteLength":45924,
			"byteOffset":138916,
			"target":34962
		},
		{
			"buffer":0,
			"byteLength":30616,
			"byteOffset":184840,
			"target":34962
		},
		{
			"buffer":0,
			"byteLength":15308,
			"byteOffset":215456,
			"target":34962
		},
		{
			"buffer":0,
			"byteLength":61232,
			"byteOffset":230764,
			"target":34962
		},
		{
			"buffer":0,
			"byteLength":37968,
			"byteOffset":291996,
			"target":34963
		}
	],
	"samplers":[
		{
			"magFilter":9729,
			"minFilter":9987
		}
	],
	"buffers":[
		{
			"byteLength":329964,
			"uri":"cat.bin"
		}
	]
}
