{
	"asset":{
		"generator":"Khronos glTF Blender I/O v5.0.21",
		"version":"2.0"
	},
	"extensionsUsed":[
		"KHR_materials_specular"
	],
	"scene":0,
	"scenes":[
		{
			"name":"Scene",
			"nodes":[
				2
			]
		}
	],
	"nodes":[
		{
			"mesh":0,
			"name":"Object_2"
		},
		{
			"children":[
				0
			],
			"name":"samsung4.obj.cleaner.materialmerger.gles"
		},
		{
			"children":[
				1
			],
			"name":"Sketchfab_model",
			"rotation":[
				-0.70710688829422,
				0,
				0,
				0.7071066498756409
			]
		}
	],
	"materials":[
		{
			"doubleSided":true,
			"name":"camera3.002",
			"pbrMetallicRoughness":{
				"baseColorFactor":[
					0.015116311609745026,
					0.0875646248459816,
					0.030199123546481133,
					1
				],
				"metallicFactor":0,
				"roughnessFactor":0.6000000238418579
			}
		},
		{
			"doubleSided":true,
			"name":"camera1",
			"pbrMetallicRoughness":{
				"baseColorFactor":[
					0,
					0,
					0,
					1
				],
				"metallicFactor":0.7603832483291626,
				"roughnessFactor":0
			}
		},
		{
			"doubleSided":true,
			"name":"camera2.001",
			"pbrMetallicRoughness":{
				"baseColorFactor":[
					0,
					0,
					0,
					1
				],
				"metallicFactor":0,
				"roughnessFactor":0
			}
		},
		{
			"doubleSided":true,
			"name":"camera3.001",
			"pbrMetallicRoughness":{
				"baseColorFactor":[
					0.06935713440179825,
					0.06569628417491913,
					0.06569628417491913,
					1
				],
				"metallicFactor":0
			}
		},
		{
			"doubleSided":true,
			"name":"camera4",
			"pbrMetallicRoughness":{
				"baseColorFactor":[
					0,
					0,
					0,
					1
				],
				"metallicFactor":0,
				"roughnessFactor":0
			}
		},
		{
			"doubleSided":true,
			"name":"camera_cell",
			"pbrMetallicRoughness":{
				"baseColorFactor":[
					0.003925731405615807,
					0.15766772627830505,
					0,
					1
				],
				"roughnessFactor":0
			}
		},
		{
			"doubleSided":true,
			"name":"flash1",
			"pbrMetallicRoughness":{
				"baseColorFactor":[
					0.5319578647613525,
					0.523209810256958,
					0.16306181252002716,
					1
				],
				"roughnessFactor":0
			}
		},
		{
			"doubleSided":true,
			"name":"flash2",
			"pbrMetallicRoughness":{
				"baseColorFactor":[
					0.5978448987007141,
					0.4448387324810028,
					0,
					1
				],
				"metallicFactor":0,
				"roughnessFactor":0.6000000238418579
			}
		},
		{
			"doubleSided":true,
			"extensions":{
				"KHR_materials_specular":{
					"specularFactor":0
				}
			},
			"name":"holes",
			"pbrMetallicRoughness":{
				"baseColorFactor":[
					0,
					0,
					0,
					1
				],
				"metallicFactor":0
			}
		},
		{
			"doubleSided":true,
			"name":"screen",
			"pbrMetallicRoughness":{
				"baseColorFactor":[
					0,
					0,
					0,
					1
				],
				"metallicFactor":0,
				"roughnessFactor":0
			}
		},
		{
			"doubleSided":true,
			"name":"screen_on",
			"pbrMetallicRoughness":{
				"baseColorFactor":[
					0,
					0,
					0,
					1
				],
				"metallicFactor":0,
				"roughnessFactor":0
			}
		}
	],
	"meshes":[
		{
			"name":"Object_0",
			"primitives":[
				{
					"attributes":{
						"POSITION":0,
						"NORMAL":1,
						"TEXCOORD_0":2
					},
					"indices":3,
					"material":0
				},
				{
					"attributes":{
						"POSITION":4,
						"NORMAL":5,
						"TEXCOORD_0":6
					},
					"indices":7,
					"material":1
				},
				{
					"attributes":{
						"POSITION":8,
						"NORMAL":9,
						"TEXCOORD_0":10
					},
					"indices":11,
					"material":2
				},
				{
					"attributes":{
						"POSITION":12,
						"NORMAL":13,
						"TEXCOORD_0":14
					},
					"indices":15,
					"material":3
				},
				{
					"attributes":{
						"POSITION":16,
						"NORMAL":17,
						"TEXCOORD_0":18
					},
					"indices":19,
					"material":4
				},
				{
					"attributes":{
						"POSITION":20,
						"NORMAL":21,
						"TEXCOORD_0":22
					},
					"indices":23,
					"material":5
				},
				{
					"attributes":{
						"POSITION":24,
						"NORMAL":25,
						"TEXCOORD_0":26
					},
					"indices":27,
					"material":6
				},
				{
					"attributes":{
						"POSITION":28,
						"NORMAL":29,
						"TEXCOORD_0":30
					},
					"indices":31,
					"material":7
				},
				{
					"attributes":{
						"POSITION":32,
						"NORMAL":33,
						"TEXCOORD_0":34
					},
					"indices":35,
					"material":8
				},
				{
					"attributes":{
						"POSITION":36,
						"NORMAL":37,
						"TEXCOORD_0":38
					},
					"indices":39,
					"material":9
				},
				{
					"attributes":{
						"POSITION":40,
						"NORMAL":41,
						"TEXCOORD_0":42
					},
					"indices":43,
					"material":10
				}
			]
		}
	],
	"accessors":[
		{
			"bufferView":0,
			"componentType":5126,
			"count":2064,
			"max":[
				0.03970000147819519,
				0.00419999985024333,
				0.08004999905824661
			],
			"min":[
				-0.03840000182390213,
				-0.0042119999416172504,
				-0.08004999905824661
			],
			"type":"VEC3"
		},
		{
			"bufferView":1,
			"componentType":5126,
			"count":2064,
			"type":"VEC3"
		},
		{
			"bufferView":2,
			"componentType":5126,
			"count":2064,
			"type":"VEC2"
		},
		{
			"bufferView":3,
			"componentType":5123,
			"count":8976,
			"type":"SCALAR"
		},
		{
			"bufferView":4,
			"componentType":5126,
			"count":3090,
			"max":[
				0.0326480008661747,
				0.005348999984562397,
				0.07440999895334244
			],
			"min":[
				0.01955699920654297,
				0.0014489999739453197,
				0.031189000234007835
			],
			"type":"VEC3"
		},
		{
			"bufferView":5,
			"componentType":5126,
			"count":3090,
			"type":"VEC3"
		},
		{
			"bufferView":6,
			"componentType":5126,
			"count":3090,
			"type":"VEC2"
		},
		{
			"bufferView":7,
			"componentType":5123,
			"count":12366,
			"type":"SCALAR"
		},
		{
			"bufferView":8,
			"componentType":5126,
			"count":384,
			"max":[
				0.03166799992322922,
				0.005078000016510487,
				0.07343199849128723
			],
			"min":[
				0.020534999668598175,
				0.004815000109374523,
				0.03216699883341789
			],
			"type":"VEC3"
		},
		{
			"bufferView":9,
			"componentType":5126,
			"count":384,
			"type":"VEC3"
		},
		{
			"bufferView":10,
			"componentType":5126,
			"count":384,
			"type":"VEC2"
		},
		{
			"bufferView":11,
			"componentType":5123,
			"count":1728,
			"type":"SCALAR"
		},
		{
			"bufferView":12,
			"componentType":5126,
			"count":1617,
			"max":[
				0.028804000467061996,
				0.005063999909907579,
				0.07056800276041031
			],
			"min":[
				0.023398999124765396,
				0.004606000147759914,
				0.03610699996352196
			],
			"type":"VEC3"
		},
		{
			"bufferView":13,
			"componentType":5126,
			"count":1617,
			"type":"VEC3"
		},
		{
			"bufferView":14,
			"componentType":5126,
			"count":1617,
			"type":"VEC2"
		},
		{
			"bufferView":15,
			"componentType":5123,
			"count":6912,
			"type":"SCALAR"
		},
		{
			"bufferView":16,
			"componentType":5126,
			"count":1959,
			"max":[
				0.027202999219298363,
				0.005020999815315008,
				0.06896699965000153
			],
			"min":[
				0.02500000037252903,
				0.0028510000556707382,
				0.037071000784635544
			],
			"type":"VEC3"
		},
		{
			"bufferView":17,
			"componentType":5126,
			"count":1959,
			"type":"VEC3"
		},
		{
			"bufferView":18,
			"componentType":5126,
			"count":1959,
			"type":"VEC2"
		},
		{
			"bufferView":19,
			"componentType":5123,
			"count":9486,
			"type":"SCALAR"
		},
		{
			"bufferView":20,
			"componentType":5126,
			"count":15,
			"max":[
				0.0008200000156648457,
				-0.00394000019878149,
				0.07521700114011765
			],
			"min":[
				-0.0009510000236332417,
				-0.004201000090688467,
				0.07344599813222885
			],
			"type":"VEC3"
		},
		{
			"bufferView":21,
			"componentType":5126,
			"count":15,
			"type":"VEC3"
		},
		{
			"bufferView":22,
			"componentType":5126,
			"count":15,
			"type":"VEC2"
		},
		{
			"bufferView":23,
			"componentType":5123,
			"count":48,
			"type":"SCALAR"
		},
		{
			"bufferView":24,
			"componentType":5126,
			"count":212,
			"max":[
				0.015430999919772148,
				0.004941000137478113,
				0.06242600083351135
			],
			"min":[
				0.010962000116705894,
				0.004344000015407801,
				0.0579570010304451
			],
			"type":"VEC3"
		},
		{
			"bufferView":25,
			"componentType":5126,
			"count":212,
			"type":"VEC3"
		},
		{
			"bufferView":26,
			"componentType":5126,
			"count":212,
			"type":"VEC2"
		},
		{
			"bufferView":27,
			"componentType":5123,
			"count":858,
			"type":"SCALAR"
		},
		{
			"bufferView":28,
			"componentType":5126,
			"count":60,
			"max":[
				0.015430999919772148,
				0.004346000030636787,
				0.06242600083351135
			],
			"min":[
				0.010962000116705894,
				0.004344000015407801,
				0.0579570010304451
			],
			"type":"VEC3"
		},
		{
			"bufferView":29,
			"componentType":5126,
			"count":60,
			"type":"VEC3"
		},
		{
			"bufferView":30,
			"componentType":5126,
			"count":60,
			"type":"VEC2"
		},
		{
			"bufferView":31,
			"componentType":5123,
			"count":90,
			"type":"SCALAR"
		},
		{
			"bufferView":32,
			"componentType":5126,
			"count":190,
			"max":[
				0.027660999447107315,
				0.001986999996006489,
				-0.0750499963760376
			],
			"min":[
				-0.027672000229358673,
				-0.001986999996006489,
				-0.08004999905824661
			],
			"type":"VEC3"
		},
		{
			"bufferView":33,
			"componentType":5126,
			"count":190,
			"type":"VEC3"
		},
		{
			"bufferView":34,
			"componentType":5126,
			"count":190,
			"type":"VEC2"
		},
		{
			"bufferView":35,
			"componentType":5123,
			"count":480,
			"type":"SCALAR"
		},
		{
			"bufferView":36,
			"componentType":5126,
			"count":475,
			"max":[
				0.0391170009970665,
				0.0015399999683722854,
				0.07870399951934814
			],
			"min":[
				-0.03720400109887123,
				-0.00419999985024333,
				-0.07856699824333191
			],
			"type":"VEC3"
		},
		{
			"bufferView":37,
			"componentType":5126,
			"count":475,
			"type":"VEC3"
		},
		{
			"bufferView":38,
			"componentType":5126,
			"count":475,
			"type":"VEC2"
		},
		{
			"bufferView":39,
			"componentType":5123,
			"count":1503,
			"type":"SCALAR"
		},
		{
			"bufferView":40,
			"componentType":5126,
			"count":116,
			"max":[
				0.0347680002450943,
				-0.00419999985024333,
				0.07601500302553177
			],
			"min":[
				-0.03489900007843971,
				-0.00419999985024333,
				-0.07385999709367752
			],
			"type":"VEC3"
		},
		{
			"bufferView":41,
			"componentType":5126,
			"count":116,
			"type":"VEC3"
		},
		{
			"bufferView":42,
			"componentType":5126,
			"count":116,
			"type":"VEC2"
		},
		{
			"bufferView":43,
			"componentType":5123,
			"count":348,
			"type":"SCALAR"
		}
	],
	"bufferViews":[
		{
			"buffer":0,
			"byteLength":24768,
			"byteOffset":0,
			"target":34962
		},
		{
			"buffer":0,
			"byteLength":24768,
			"byteOffset":24768,
			"target":34962
		},
		{
			"buffer":0,
			"byteLength":16512,
			"byteOffset":49536,
			"target":34962
		},
		{
			"buffer":0,
			"byteLength":17952,
			"byteOffset":66048,
			"target":34963
		},
		{
			"buffer":0,
			"byteLength":37080,
			"byteOffset":84000,
			"target":34962
		},
		{
			"buffer":0,
			"byteLength":37080,
			"byteOffset":121080,
			"target":34962
		},
		{
			"buffer":0,
			"byteLength":24720,
			"byteOffset":158160,
			"target":34962
		},
		{
			"buffer":0,
			"byteLength":24732,
			"byteOffset":182880,
			"target":34963
		},
		{
			"buffer":0,
			"byteLength":4608,
			"byteOffset":207612,
			"target":34962
		},
		{
			"buffer":0,
			"byteLength":4608,
			"byteOffset":212220,
			"target":34962
		},
		{
			"buffer":0,
			"byteLength":3072,
			"byteOffset":216828,
			"target":34962
		},
		{
			"buffer":0,
			"byteLength":3456,
			"byteOffset":219900,
			"target":34963
		},
		{
			"buffer":0,
			"byteLength":19404,
			"byteOffset":223356,
			"target":34962
		},
		{
			"buffer":0,
			"byteLength":19404,
			"byteOffset":242760,
			"target":34962
		},
		{
			"buffer":0,
			"byteLength":12936,
			"byteOffset":262164,
			"target":34962
		},
		{
			"buffer":0,
			"byteLength":13824,
			"byteOffset":275100,
			"target":34963
		},
		{
			"buffer":0,
			"byteLength":23508,
			"byteOffset":288924,
			"target":34962
		},
		{
			"buffer":0,
			"byteLength":23508,
			"byteOffset":312432,
			"target":34962
		},
		{
			"buffer":0,
			"byteLength":15672,
			"byteOffset":335940,
			"target":34962
		},
		{
			"buffer":0,
			"byteLength":18972,
			"byteOffset":351612,
			"target":34963
		},
		{
			"buffer":0,
			"byteLength":180,
			"byteOffset":370584,
			"target":34962
		},
		{
			"buffer":0,
			"byteLength":180,
			"byteOffset":370764,
			"target":34962
		},
		{
			"buffer":0,
			"byteLength":120,
			"byteOffset":370944,
			"target":34962
		},
		{
			"buffer":0,
			"byteLength":96,
			"byteOffset":371064,
			"target":34963
		},
		{
			"buffer":0,
			"byteLength":2544,
			"byteOffset":371160,
			"target":34962
		},
		{
			"buffer":0,
			"byteLength":2544,
			"byteOffset":373704,
			"target":34962
		},
		{
			"buffer":0,
			"byteLength":1696,
			"byteOffset":376248,
			"target":34962
		},
		{
			"buffer":0,
			"byteLength":1716,
			"byteOffset":377944,
			"target":34963
		},
		{
			"buffer":0,
			"byteLength":720,
			"byteOffset":379660,
			"target":34962
		},
		{
			"buffer":0,
			"byteLength":720,
			"byteOffset":380380,
			"target":34962
		},
		{
			"buffer":0,
			"byteLength":480,
			"byteOffset":381100,
			"target":34962
		},
		{
			"buffer":0,
			"byteLength":180,
			"byteOffset":381580,
			"target":34963
		},
		{
			"buffer":0,
			"byteLength":2280,
			"byteOffset":381760,
			"target":34962
		},
		{
			"buffer":0,
			"byteLength":2280,
			"byteOffset":384040,
			"target":34962
		},
		{
			"buffer":0,
			"byteLength":1520,
			"byteOffset":386320,
			"target":34962
		},
		{
			"buffer":0,
			"byteLength":960,
			"byteOffset":387840,
			"target":34963
		},
		{
			"buffer":0,
			"byteLength":5700,
			"byteOffset":388800,
			"target":34962
		},
		{
			"buffer":0,
			"byteLength":5700,
			"byteOffset":394500,
			"target":34962
		},
		{
			"buffer":0,
			"byteLength":3800,
			"byteOffset":400200,
			"target":34962
		},
		{
			"buffer":0,
			"byteLength":3006,
			"byteOffset":404000,
			"target":34963
		},
		{
			"buffer":0,
			"byteLength":1392,
			"byteOffset":407008,
			"target":34962
		},
		{
			"buffer":0,
			"byteLength":1392,
			"byteOffset":408400,
			"target":34962
		},
		{
			"buffer":0,
			"byteLength":928,
			"byteOffset":409792,
			"target":34962
		},
		{
			"buffer":0,
			"byteLength":696,
			"byteOffset":410720,
			"target":34963
		}
	],
	"buffers":[
		{
			"byteLength":411416,
			"uri":"cellphone.bin"
		}
	]
}
